<svg id="Layer_1" enable-background="new 0 0 511.998 511.998" height="512" viewBox="0 0 511.998 511.998" width="512" xmlns="http://www.w3.org/2000/svg"><g><path d="m116.773 63.281h278.453v360.712h-278.453z" fill="#98f9ff"/><path d="m255.999 63.281h139.226v360.712h-139.226z" fill="#7dd5f4"/><path d="m255.999 169.396-70.426 59.857v99.939h140.852v-99.939z" fill="#f4f1f1"/><path d="m326.425 229.253-70.426-59.857v159.796h70.426z" fill="#eceae7"/><g><path d="m341.029 266.037-85.03-72.27-85.03 72.27-19.428-22.859 104.458-88.783 104.458 88.783z" fill="#ff415b"/></g><path d="m353.944 0h-195.89c-31.033 0-56.281 25.248-56.281 56.281v399.437c0 31.033 25.248 56.281 56.281 56.281h195.891c31.033 0 56.281-25.248 56.281-56.281v-399.437c0-31.033-25.248-56.281-56.282-56.281zm26.282 408.993h-248.454v-330.712h248.453v330.712z" fill="#08475e"/><path d="m353.944 0h-97.945v78.281h124.227v330.712h-124.227v103.005h97.945c31.033 0 56.281-25.248 56.281-56.281v-399.436c.001-31.033-25.247-56.281-56.281-56.281z" fill="#05303d"/><g><path d="m240.999 282.144h30v47.048h-30z" fill="#08475e"/></g><g><path d="m240.999 436.994h30v30.002h-30z" fill="#0a617d"/></g><path d="m360.457 243.178-104.458-88.783v39.372l85.03 72.27z" fill="#e50058"/><path d="m255.999 282.144h15v47.048h-15z" fill="#05303d"/><path d="m255.999 436.994h15v30.002h-15z" fill="#08475e"/></g></svg>